<svg width="33" height="28" viewBox="0 0 33 28" fill="none" xmlns="http://www.w3.org/2000/svg">
<path fill-rule="evenodd" clip-rule="evenodd" d="M17.3993 27.7183C8.37767 27.7183 0.462469 21.5986 0.632688 15.069C0.434099 10.3256 3.01576 5.28927 8.83159 2.62473C10.9877 1.62918 14.7042 0.780041 18.3071 0.75076C19.1015 0.721479 19.6122 0.633638 20.3214 0.487234C20.7753 0.399392 21.286 0.282269 22.0236 0.194427C23.2151 0.0187423 24.8322 -0.156942 26.2507 0.428673C27.8962 1.27781 29.5133 2.56616 29.5133 3.18106C29.5133 3.79595 28.4352 4.90862 27.726 4.99646C26.506 5.14287 24.9741 4.90862 23.0449 4.58653C21.5697 4.35229 19.8675 4.05948 17.9383 3.91308C9.79617 3.79595 3.83849 9.44713 4.00871 14.9519C4.17893 21.9207 12.6615 24.9659 17.91 24.9659C32.4921 25.0537 32.0382 11.6432 28.6054 10.999C27.499 10.794 26.5912 12.7851 25.6266 14.9812C24.4918 17.5286 23.2435 20.3688 21.3427 20.3396C19.5838 20.3103 18.1937 17.2944 17.0305 14.7469C16.2078 12.9901 15.5269 11.4675 14.9028 11.3797C13.768 11.2625 12.9169 13.9856 12.1509 16.3867C11.6402 17.9971 11.1863 19.4611 10.7324 19.7832C9.68269 20.8666 6.93081 18.5242 7.29962 17.6164C7.66843 16.738 8.03723 17.0601 8.43441 17.4408C8.74648 17.7336 9.11529 18.0849 9.51247 17.7043C9.65432 17.5579 9.88128 16.9137 10.165 16.006C11.0161 13.4586 12.4913 8.8908 15.0446 8.68583C16.8603 8.53943 18.3071 11.936 19.4703 14.6298C20.2079 16.3867 20.8321 17.8507 21.3711 17.8507C21.9669 17.8507 22.5626 16.5038 23.2719 14.8348C24.4918 12.0824 26.0521 8.51015 28.6054 8.94936C35.1589 10.1206 35.6979 27.7476 17.3993 27.7183ZM25.8252 1.83415C25.8252 2.12695 25.3712 2.15623 24.435 2.12695C23.7258 2.09767 23.2719 1.89271 23.3854 1.51206C23.4988 1.13141 24.123 1.10213 24.8039 1.24853C25.1159 1.30709 25.8252 1.51206 25.8252 1.83415Z" fill="white"/>
</svg>
