<svg width="24" height="25" viewBox="0 0 24 25" fill="none" xmlns="http://www.w3.org/2000/svg">
<g clip-path="url(#clip0_0_5094)">
<path d="M19.9038 0C20.6822 0.142243 21.2397 0.623593 21.7621 1.17777C22.2389 1.68416 22.7327 2.17347 23.2357 2.65368C24.2416 3.61525 24.2507 5.2573 23.2471 6.22C22.9489 6.50562 22.6622 6.80377 22.3879 7.07915C20.5661 5.2573 18.7556 3.44683 16.9395 1.62954C17.5995 0.975218 18.1923 0.165002 19.2472 0.00113794H19.9038V0Z" fill="white"/>
<path d="M8.43002 20.9451C6.65255 19.1676 4.84777 17.3629 3.06006 15.5763C7.43431 11.202 11.8188 6.81867 16.1908 2.44556C17.9694 4.22416 19.7753 6.03008 21.5596 7.81551C17.1865 12.1886 12.8031 16.572 8.43002 20.9451V20.9451Z" fill="white"/>
<path d="M2.48299 16.5571C4.1478 18.2219 5.79213 19.8663 7.45467 21.5288C4.99216 22.3493 2.52168 23.172 0 24.0129C0.836389 21.4992 1.65798 19.0333 2.48299 16.5571V16.5571Z" fill="white"/>
</g>
<defs>
<clipPath id="clip0_0_5094">
<rect width="23.9958" height="24.0129" fill="white"/>
</clipPath>
</defs>
</svg>
