<svg width="22" height="26" viewBox="0 0 22 26" fill="none" xmlns="http://www.w3.org/2000/svg">
<path fill-rule="evenodd" clip-rule="evenodd" d="M21.125 10.764C21.125 4.823 16.405 0 10.5625 0C4.73271 0 0 4.823 0 10.764C0 13.741 1.18637 16.432 3.09986 18.369C3.25294 18.525 3.46981 18.629 3.69943 18.629C4.17142 18.629 4.55412 18.239 4.55412 17.758C4.55412 17.511 4.46483 17.29 4.29899 17.121C2.70441 15.496 1.72215 13.234 1.72215 10.764C1.72215 5.798 5.67671 1.742 10.5497 1.742C15.4228 1.742 19.4029 5.785 19.4029 10.764C19.4029 13.26 18.4206 15.509 16.8133 17.147L9.35062 24.752L10.5625 26L18.0506 18.369C19.9514 16.432 21.125 13.741 21.125 10.764Z" fill="white"/>
<path fill-rule="evenodd" clip-rule="evenodd" d="M15.4606 12.8441L12.8199 6.05811L10.6003 10.0231L8.36788 6.05811L5.74001 12.8441H4.97461V13.8581H8.94193V12.8441H8.35512L8.92917 11.1541L10.6003 13.9361L12.2714 11.1541L12.8455 12.8441H12.2459V13.8581H16.2387V12.8441H15.4606Z" fill="white"/>
</svg>
