<svg width="27" height="27" viewBox="0 0 27 27" fill="none" xmlns="http://www.w3.org/2000/svg">
<path fill-rule="evenodd" clip-rule="evenodd" d="M19.2754 0.524902H7.96043C2.61649 0.524902 0.680664 2.48122 0.680664 7.77957V19.0556C0.680664 24.3811 2.64375 26.3102 7.96043 26.3102H19.2754C24.6194 26.3102 26.5552 24.3539 26.5552 19.0556V7.77957C26.5825 2.48122 24.6194 0.524902 19.2754 0.524902Z" fill="#FF7272"/>
<path d="M5.80506 13.4321H6.48668V16.8013H5.80506V15.4428H4.25096V16.8013H3.56934V13.4321H4.25096V14.7907H5.80506V13.4321ZM9.6767 15.3613C9.6767 15.9047 9.40405 16.2036 8.91328 16.2036C8.42251 16.2036 8.14986 15.9047 8.14986 15.3341V13.4321H7.46823V15.3613C7.46823 16.3123 7.98627 16.8557 8.91328 16.8557C9.84029 16.8557 10.3856 16.3123 10.3856 15.3341V13.4321H9.70397V15.3613H9.6767ZM17.6108 15.7417L16.8474 13.4321H16.2748L15.5114 15.7417L14.7753 13.4321H14.0391L15.2115 16.8013H15.7841L16.5475 14.5733L17.3109 16.8013H17.8835L19.0559 13.4321H18.347L17.6108 15.7417ZM20.3101 15.3613H21.5643V14.7363H20.3101V14.0571H22.1368V13.4321H19.6557V16.8013H22.2186V16.1764H20.3373V15.3613H20.3101ZM23.0093 16.8013H23.6909V13.4321H23.0093V16.8013ZM11.7216 16.0949L11.4217 16.8013H10.7128L12.1851 13.4321H12.7849L14.2572 16.8013H13.5483L13.2484 16.0949H11.7216ZM11.967 15.4971H13.003L12.485 14.3016L11.967 15.4971Z" fill="white"/>
<path d="M13.6301 9.13874C11.2581 9.13874 9.32227 7.20959 9.32227 4.8457H9.9221C9.9221 6.88354 11.5853 8.54097 13.6301 8.54097C15.675 8.54097 17.3382 6.88354 17.3382 4.8457H17.938C17.938 7.20959 16.0022 9.13874 13.6301 9.13874Z" fill="white"/>
</svg>
