<svg width="28" height="28" viewBox="0 0 28 28" fill="none" xmlns="http://www.w3.org/2000/svg">
<g clip-path="url(#clip0_0_4320)">
<path d="M14.8218 28.0002H13.181C13.1109 27.9845 13.0408 27.9602 12.97 27.9552C10.7798 27.8007 8.7306 27.1749 6.86159 26.0291C3.23446 23.8063 1.00138 20.6029 0.218158 16.4111C0.120166 15.8862 0.0715271 15.3519 0 14.8227C0 14.2756 0 13.7291 0 13.182C0.0171665 13.0855 0.0364788 12.9889 0.050069 12.8917C0.137332 12.2887 0.187401 11.678 0.316865 11.0843C1.04787 7.72292 2.77525 4.96869 5.51331 2.89461C8.92086 0.31418 12.7576 -0.541912 16.9412 0.33063C20.2901 1.02866 23.0124 2.78376 25.0953 5.49007C27.3441 8.41237 28.2797 11.7409 27.9278 15.4034C27.6424 18.3715 26.4908 20.992 24.5123 23.2284C22.3436 25.6801 19.6428 27.2085 16.414 27.7828C15.8869 27.8765 15.3526 27.9294 14.8218 28.0009V28.0002ZM24.4544 14.0224C24.4716 8.27648 19.7801 3.56905 14.0215 3.55188C8.27425 3.53472 3.56563 8.22427 3.54846 13.9823C3.53129 19.7282 8.22276 24.4357 13.9814 24.4528C19.7286 24.47 24.4372 19.7804 24.4544 14.0224Z" fill="#13AB7B"/>
<path d="M11.7275 18.3405H12.5272V14.5664H11.7397V12.3607H15.452V18.3319H16.2759V20.5483H11.7275V18.3405Z" fill="#13AB7B"/>
<path d="M15.443 9.16601C15.3915 10.0872 14.614 10.8145 13.7385 10.7602C12.7679 10.7001 12.0877 9.94272 12.1406 8.98006C12.1892 8.09751 12.9753 7.39804 13.8694 7.4431C14.7799 7.48887 15.4931 8.26987 15.443 9.1653V9.16601Z" fill="#13AB7B"/>
</g>
<defs>
<clipPath id="clip0_0_4320">
<rect width="28" height="28" fill="white"/>
</clipPath>
</defs>
</svg>
