<svg width="19" height="23" viewBox="0 0 19 23" fill="none" xmlns="http://www.w3.org/2000/svg">
<path d="M15.2693 11.8931C15.2803 11.0438 15.5065 10.211 15.9269 9.47235C16.3474 8.73365 16.9483 8.113 17.674 7.66815C17.213 7.01167 16.6049 6.4714 15.8979 6.09028C15.1909 5.70915 14.4046 5.49766 13.6013 5.47259C11.8878 5.29324 10.2266 6.49506 9.35345 6.49506C8.46337 6.49506 7.11898 5.4904 5.67129 5.5201C4.73488 5.55027 3.82228 5.82181 3.0224 6.30826C2.22252 6.79471 1.56264 7.47949 1.10706 8.29586C-0.866417 11.7031 0.60562 16.7105 2.49605 19.4646C3.44187 20.8133 4.54726 22.3197 5.99364 22.2663C7.40902 22.2077 7.93763 21.3663 9.64611 21.3663C11.3387 21.3663 11.8347 22.2663 13.3104 22.2323C14.8292 22.2077 15.7861 20.8777 16.6987 19.5163C17.3783 18.5554 17.9012 17.4933 18.2481 16.3695C17.3658 15.9974 16.6128 15.3744 16.0831 14.5784C15.5533 13.7824 15.2703 12.8485 15.2693 11.8931Z" fill="white"/>
<path d="M12.4818 3.66176C13.3099 2.67045 13.7178 1.39629 13.619 0.109863C12.3539 0.24237 11.1853 0.845332 10.346 1.79861C9.93564 2.26431 9.62135 2.80609 9.4211 3.39299C9.22085 3.97988 9.13856 4.60038 9.17893 5.21901C9.81173 5.22551 10.4378 5.08874 11.0099 4.81899C11.582 4.54925 12.0852 4.15358 12.4818 3.66176Z" fill="white"/>
</svg>
