<svg width="24" height="28" viewBox="0 0 24 28" fill="none" xmlns="http://www.w3.org/2000/svg">
<path d="M17.8176 9.69546L2.95107 1.24974C2.64888 1.01053 2.27203 0.885518 1.88678 0.896684C1.50153 0.907851 1.13255 1.05448 0.844727 1.3108L13.5235 13.9895L17.8176 9.69546Z" fill="url(#paint0_linear_116_318)"/>
<path opacity="0.2" d="M17.6955 18.1924L2.95107 26.5872C2.65795 26.8084 2.30073 26.9281 1.93351 26.9281C1.56629 26.9281 1.20907 26.8084 0.915955 26.5872L0.844727 26.6584L0.915955 26.7399C1.20907 26.9611 1.56629 27.0807 1.93351 27.0807C2.30073 27.0807 2.65795 26.9611 2.95107 26.7399L17.8176 18.284L17.6955 18.1924Z" fill="black"/>
<path opacity="0.12" d="M22.7831 15.3126L17.6953 18.1923L17.7869 18.2838L22.7831 15.455C23.078 15.3303 23.3338 15.1284 23.5237 14.8705C23.7135 14.6127 23.8303 14.3084 23.8617 13.9897C23.7981 14.2793 23.6673 14.5499 23.48 14.7796C23.2926 15.0094 23.0539 15.192 22.7831 15.3126Z" fill="black"/>
<path d="M0.843957 1.31098C0.508641 1.70744 0.337547 2.21707 0.365704 2.73555V25.2439C0.331081 25.7632 0.502967 26.2752 0.843957 26.6685L0.915185 26.7499L13.5227 14.1424V13.8371L0.915185 1.23975L0.843957 1.31098Z" fill="url(#paint1_linear_116_318)"/>
<path d="M17.6944 18.3446L13.5225 14.1421V13.8368L17.6944 9.63428L17.786 9.69533L22.7822 12.5241C24.2068 13.328 24.2068 14.6508 22.7822 15.4649L17.8064 18.2937L17.6944 18.3446Z" fill="url(#paint2_linear_116_318)"/>
<path d="M17.8166 18.2833L13.5225 13.9893L0.84375 26.668C1.13129 26.9239 1.49933 27.0712 1.88405 27.0842C2.26878 27.0972 2.64592 26.9752 2.95009 26.7392L17.8166 18.2833Z" fill="url(#paint3_linear_116_318)"/>
<path opacity="0.25" d="M2.9508 1.39208L22.783 12.6666C23.0538 12.7872 23.2925 12.9698 23.4799 13.1995C23.6672 13.4293 23.798 13.6999 23.8616 13.9894C23.8301 13.6708 23.7134 13.3665 23.5235 13.1086C23.3337 12.8508 23.0779 12.6488 22.783 12.5241L2.9508 1.24962C1.5364 0.43558 0.366211 1.10717 0.366211 2.73526V2.88789C0.396738 1.2598 1.5364 0.588214 2.9508 1.39208Z" fill="white"/>
<defs>
<linearGradient id="paint0_linear_116_318" x1="-2.3504" y1="-6.17841" x2="7.98797" y2="4.15995" gradientUnits="userSpaceOnUse">
<stop stop-color="#32A071"/>
<stop offset="0.07" stop-color="#2DA771"/>
<stop offset="0.48" stop-color="#15CF74"/>
<stop offset="0.8" stop-color="#06E775"/>
<stop offset="1" stop-color="#00F076"/>
</linearGradient>
<linearGradient id="paint1_linear_116_318" x1="12.4034" y1="2.50152" x2="-4.6712" y2="19.5761" gradientUnits="userSpaceOnUse">
<stop stop-color="#00A0FF"/>
<stop offset="0.01" stop-color="#00A1FF"/>
<stop offset="0.26" stop-color="#00BEFF"/>
<stop offset="0.51" stop-color="#00D2FF"/>
<stop offset="0.76" stop-color="#00DFFF"/>
<stop offset="1" stop-color="#00E3FF"/>
</linearGradient>
<linearGradient id="paint2_linear_116_318" x1="24.6443" y1="13.9894" x2="0.0296744" y2="13.9894" gradientUnits="userSpaceOnUse">
<stop stop-color="#FFE000"/>
<stop offset="0.41" stop-color="#FFBD00"/>
<stop offset="0.78" stop-color="#FFA500"/>
<stop offset="1" stop-color="#FF9C00"/>
</linearGradient>
<linearGradient id="paint3_linear_116_318" x1="15.4864" y1="16.3296" x2="-7.6732" y2="39.479" gradientUnits="userSpaceOnUse">
<stop stop-color="#FF3A44"/>
<stop offset="1" stop-color="#C31162"/>
</linearGradient>
</defs>
</svg>
