<svg width="24" height="24" viewBox="0 0 24 24" fill="none" xmlns="http://www.w3.org/2000/svg">
<g clip-path="url(#clip0_0_4411)">
<path d="M9.37544 0C9.60995 0 9.84445 0 10.079 0C10.1213 0.0154518 10.1623 0.0362781 10.2059 0.0450118C11.2891 0.265368 12.0249 0.893517 12.4139 1.9261C12.6068 2.43668 12.5671 2.97145 12.5685 3.50151C12.5691 3.85018 12.5685 4.19886 12.5685 4.57239C12.6894 4.57239 12.7815 4.57239 12.8735 4.57239C14.2483 4.57239 15.6237 4.5744 16.9985 4.57104C17.3949 4.57037 17.7786 4.62143 18.1327 4.80551C19.0069 5.25966 19.4268 5.98992 19.4275 6.96809C19.4282 8.35875 19.4275 9.74874 19.4275 11.1394C19.4275 11.2308 19.4275 11.3221 19.4275 11.433C20.0457 11.433 20.6309 11.4222 21.2155 11.435C22.7086 11.4672 23.9328 12.6591 23.996 14.1317C24.0618 15.654 22.9699 16.9627 21.4702 17.1092C20.8816 17.1669 20.2842 17.1354 19.6909 17.1454C19.6089 17.1468 19.527 17.1535 19.4268 17.1582C19.4268 17.2751 19.4268 17.3678 19.4268 17.4605C19.4268 18.8512 19.4336 20.2412 19.4248 21.6318C19.4161 23.0232 18.4277 23.9946 17.0361 23.9966C15.7077 23.9987 14.38 23.9966 13.0516 23.9966H12.7983C12.7983 23.5055 12.803 23.0527 12.7962 22.5999C12.7922 22.3352 12.7902 22.0679 12.7526 21.8065C12.5543 20.4159 11.3429 19.2872 9.98085 19.2126C8.43272 19.1273 7.1144 20.037 6.74887 21.4686C6.66488 21.7971 6.6427 22.1465 6.62926 22.4871C6.60978 22.9829 6.62456 23.48 6.62456 23.9657C6.57887 23.9819 6.56476 23.9919 6.55065 23.9919C5.08181 23.9919 3.61297 24.0107 2.1448 23.9832C1.51184 23.9718 0.98169 23.6748 0.555014 23.1945C0.256005 22.8572 0.129011 22.4447 0 22.0289C0 20.4824 0 18.9358 0 17.3886C0.10079 17.3833 0.201579 17.3745 0.303041 17.3732C0.880229 17.3638 1.45876 17.3839 2.03326 17.343C3.54174 17.2361 4.74047 15.9295 4.79288 14.3661C4.84394 12.8384 3.7104 11.431 2.21871 11.2576C1.48698 11.1723 0.740467 11.216 0.00067193 11.2012C0.00067193 9.67014 0.00067193 8.13907 0.00067193 6.608C0.0792878 6.36614 0.129011 6.10951 0.240551 5.88378C0.677306 5.00302 1.40501 4.57373 2.38535 4.57239C3.77423 4.57037 5.16378 4.57239 6.55266 4.57239C6.64472 4.57239 6.73677 4.57239 6.85369 4.57239C6.85369 4.47027 6.85369 4.39436 6.85369 4.31777C6.85369 3.84951 6.84831 3.38126 6.85503 2.913C6.86847 1.91065 7.27028 1.10514 8.08534 0.511925C8.4717 0.231105 8.92054 0.107491 9.37544 0Z" fill="#13AB7B"/>
</g>
<defs>
<clipPath id="clip0_0_4411">
<rect width="24" height="24" fill="white"/>
</clipPath>
</defs>
</svg>
