<svg width="16" height="16" viewBox="0 0 16 16" fill="none" xmlns="http://www.w3.org/2000/svg">
<path fill-rule="evenodd" clip-rule="evenodd" d="M8 0C12.415 0 16 3.585 16 8C16 12.415 12.415 16 8 16C3.585 16 0 12.415 0 8C0 3.585 3.585 0 8 0ZM6.99 2.70601C7.032 2.68201 7.077 2.66301 7.126 2.65001C7.425 2.57001 7.733 2.74801 7.813 3.04701L8.394 5.21501C8.474 5.51501 8.297 5.82301 7.997 5.90301C7.984 5.90601 7.971 5.90901 7.957 5.91201L7.243 6.07601C7.243 6.07601 6.648 6.22101 6.674 6.68901C6.712 7.35801 7.301 8.31501 7.301 8.31501C7.302 8.31701 7.836 9.30401 8.396 9.67101C8.788 9.92801 9.212 9.48501 9.212 9.48501L9.71 8.94801C9.719 8.93801 9.729 8.92801 9.738 8.91801C9.957 8.69901 10.313 8.69901 10.532 8.91801L12.119 10.505C12.338 10.724 12.338 11.08 12.119 11.299C12.084 11.335 12.045 11.364 12.003 11.388C12.003 11.388 11.207 11.848 10.294 12.375C9.38 12.903 9.005 12.546 8.678 12.381C7.902 11.991 6.747 11.135 5.656 9.26501C5.659 9.26301 5.663 9.26101 5.666 9.25901C5.663 9.26101 5.659 9.26301 5.656 9.26501C4.582 7.38501 4.419 5.95701 4.468 5.09001C4.489 4.72401 4.367 4.22101 5.281 3.69301C6.195 3.16601 6.99 2.70601 6.99 2.70601V2.70601V2.70601Z" fill="#FF7272"/>
</svg>
