<svg width="23" height="14" viewBox="0 0 23 14" fill="none" xmlns="http://www.w3.org/2000/svg">
<path d="M22.2962 12.3715C22.2962 12.2843 22.209 12.2843 22.209 12.1971C21.8603 11.4997 21.0758 10.628 20.0297 9.66907C19.5066 9.2332 19.2451 8.8845 19.0707 8.71015C18.8092 8.36145 18.8092 8.09994 18.8964 7.75124C18.9836 7.48972 19.3323 7.05384 19.9425 6.26927C20.2912 5.8334 20.4655 5.57189 20.727 5.31036C22.0347 3.56688 22.6449 2.43361 22.4705 1.91057L22.3834 1.8234C22.2962 1.73623 22.209 1.64906 22.0347 1.64906C21.8603 1.56188 21.5988 1.56188 21.3373 1.64906H18.0247C17.9375 1.64906 17.9375 1.64906 17.7631 1.64906C17.676 1.64906 17.5888 1.64906 17.5888 1.64906H17.5016H17.4144L17.3273 1.73622C17.2401 1.8234 17.2401 1.82339 17.2401 1.91057C16.8914 2.86948 16.4555 3.65405 16.0197 4.52579C15.7581 4.96166 15.4966 5.39754 15.2351 5.74623C14.9736 6.09493 14.7992 6.35645 14.6249 6.5308C14.4505 6.70514 14.2762 6.79232 14.189 6.96667C14.1018 7.05384 13.9275 7.14102 13.9275 7.05385C13.8403 7.05385 13.7531 7.05384 13.7531 6.96667C13.6659 6.87949 13.5788 6.79232 13.4916 6.70514C13.4044 6.61797 13.4044 6.44362 13.3173 6.26927C13.3173 6.09492 13.3173 5.92058 13.3173 5.8334C13.3173 5.74623 13.3173 5.48471 13.3173 5.31036C13.3173 5.04884 13.3173 4.87449 13.3173 4.78731C13.3173 4.52579 13.3173 4.1771 13.3173 3.82841C13.3173 3.47971 13.3173 3.21818 13.3173 3.04383C13.3173 2.86948 13.3173 2.60797 13.3173 2.43362C13.3173 2.17209 13.3173 1.99774 13.3173 1.91057C13.3173 1.82339 13.2301 1.64905 13.2301 1.56188C13.1429 1.4747 13.0557 1.38753 12.9686 1.30035C12.8814 1.21318 12.707 1.21318 12.6199 1.12601C12.184 1.03883 11.661 0.95166 11.0507 0.95166C9.65596 0.95166 8.69704 1.03884 8.34834 1.21319C8.174 1.30036 7.99965 1.38753 7.91247 1.56188C7.73813 1.73622 7.73812 1.8234 7.82529 1.8234C8.26116 1.91058 8.60987 2.08492 8.78421 2.34644L8.87139 2.5208C8.95857 2.60797 8.95855 2.78231 9.04573 3.04383C9.1329 3.30536 9.13291 3.56688 9.13291 3.91557C9.13291 4.43862 9.13291 4.96167 9.13291 5.31036C9.13291 5.74623 9.04573 6.00775 9.04573 6.26927C9.04573 6.53079 8.95857 6.70515 8.87139 6.79232C8.78422 6.96667 8.78421 7.05385 8.69703 7.05385C8.69703 7.05385 8.69703 7.14101 8.60986 7.14101C8.52268 7.14101 8.43551 7.22819 8.26116 7.22819C8.17399 7.22819 7.99965 7.14102 7.91247 7.05385C7.73813 6.96667 7.56378 6.79232 7.4766 6.61798C7.30226 6.44363 7.1279 6.1821 6.95355 5.8334C6.77921 5.4847 6.51767 5.13601 6.34332 4.61297L6.16899 4.26428C6.08182 4.08993 5.90747 3.74123 5.73312 3.30536C5.55877 2.86949 5.38442 2.5208 5.21007 2.08493C5.1229 1.91058 5.03573 1.8234 4.94856 1.73622H4.86138C4.86138 1.73622 4.7742 1.64906 4.68702 1.64906C4.59985 1.64906 4.51268 1.56188 4.42551 1.56188H1.28724C0.938543 1.56188 0.764197 1.64905 0.677023 1.73622L0.589844 1.8234C0.589844 1.8234 0.589844 1.91057 0.589844 1.99775C0.589844 2.08492 0.589849 2.17209 0.677023 2.34644C1.11289 3.39253 1.63594 4.43862 2.15898 5.48471C2.68202 6.44362 3.20507 7.31537 3.55377 7.92559C3.98964 8.53581 4.33833 9.14602 4.7742 9.66907C5.21007 10.1921 5.47159 10.5408 5.55876 10.7152C5.73311 10.8895 5.82028 10.9767 5.90745 11.0638L6.16899 11.3254C6.34334 11.4997 6.60486 11.7612 6.95355 12.0228C7.30225 12.2843 7.73811 12.5458 8.17399 12.8073C8.60986 13.0689 9.13291 13.2432 9.65596 13.4176C10.2662 13.5919 10.7892 13.6791 11.3123 13.5919H12.6199C12.8814 13.5919 13.0557 13.5047 13.2301 13.3304L13.3173 13.2432C13.3173 13.156 13.4044 13.156 13.4044 13.0689C13.4044 12.9817 13.4044 12.8945 13.4044 12.7202C13.4044 12.3715 13.4044 12.1099 13.4916 11.8484C13.5788 11.5869 13.5788 11.4126 13.666 11.2382C13.7531 11.0639 13.8403 10.9767 13.9275 10.8895C14.0147 10.8023 14.1018 10.7152 14.1018 10.7152H14.189C14.3633 10.628 14.6249 10.7152 14.7992 10.8895C15.0607 11.0638 15.3223 11.3254 15.4966 11.5869C15.6709 11.8484 15.9325 12.1099 16.2812 12.4586C16.6299 12.8073 16.8914 13.0689 17.0658 13.156L17.3273 13.3304C17.5016 13.4176 17.676 13.5047 17.9375 13.5919C18.199 13.6791 18.3733 13.6791 18.5477 13.6791L21.5116 13.5919C21.7732 13.5919 22.0347 13.5047 22.209 13.4176C22.3834 13.3304 22.4705 13.2432 22.4705 13.0689C22.4705 12.9817 22.4705 12.8073 22.4705 12.7202C22.2962 12.5458 22.2962 12.4586 22.2962 12.3715Z" fill="white"/>
</svg>
