<svg width="27" height="27" viewBox="0 0 27 27" fill="none" xmlns="http://www.w3.org/2000/svg">
<path d="M13.0909 0.36377C5.85591 0.36377 0 6.21868 0 13.4547C0 15.7508 0.598855 17.9934 1.73604 19.9714L0.0493386 25.2093C-0.068315 25.5744 0.0283647 25.9747 0.299627 26.246C0.568293 26.5146 0.967596 26.6149 1.33634 26.4962L6.57422 24.8095C8.55216 25.9467 10.7948 26.5456 13.0909 26.5456C20.3259 26.5456 26.1818 20.6907 26.1818 13.4547C26.1818 6.21968 20.3269 0.36377 13.0909 0.36377ZM13.0909 24.5001C11.0169 24.5001 8.99521 23.9215 7.24438 22.8266C6.9925 22.6692 6.67969 22.6267 6.38865 22.7203L2.60755 23.938L3.82524 20.1569C3.91752 19.8701 3.87857 19.5569 3.71877 19.3012C2.62413 17.5504 2.04545 15.5287 2.04545 13.4547C2.04545 7.36426 7.00049 2.40922 13.0909 2.40922C19.1813 2.40922 24.1364 7.36426 24.1364 13.4547C24.1364 19.5451 19.1813 24.5001 13.0909 24.5001ZM14.3693 13.4547C14.3693 14.1606 13.797 14.7331 13.0909 14.7331C12.3848 14.7331 11.8125 14.1606 11.8125 13.4547C11.8125 12.7486 12.3848 12.1763 13.0909 12.1763C13.797 12.1763 14.3693 12.7486 14.3693 13.4547ZM19.483 13.4547C19.483 14.1606 18.9107 14.7331 18.2045 14.7331C17.4984 14.7331 16.9261 14.1606 16.9261 13.4547C16.9261 12.7486 17.4984 12.1763 18.2045 12.1763C18.9107 12.1763 19.483 12.7486 19.483 13.4547ZM9.25568 13.4547C9.25568 14.1606 8.68339 14.7331 7.97727 14.7331C7.27135 14.7331 6.69886 14.1606 6.69886 13.4547C6.69886 12.7486 7.27135 12.1763 7.97727 12.1763C8.68339 12.1763 9.25568 12.7486 9.25568 13.4547Z" fill="white"/>
</svg>
