<svg width="269" height="48" viewBox="0 0 269 48" fill="none" xmlns="http://www.w3.org/2000/svg">
<path d="M76.0998 17.8871C74.487 20.0004 73.0479 20.9424 70.4178 20.9424C66.7456 20.9424 63.6689 18.1162 63.6689 14.2715C63.6689 10.5287 66.6215 7.67701 70.4674 7.67701C72.7501 7.67701 74.5366 8.84824 75.802 10.6815L79.7968 6.45486C77.4644 3.01756 73.9907 1.79541 70.0208 1.79541C62.9742 1.79541 57.4163 7.16778 57.4163 14.4752C57.4163 21.8081 63.0238 27.0023 70.0208 27.0023C74.2389 27.0023 77.6133 25.3218 80.1689 21.9354L76.0998 17.8871Z" fill="#28926E"/>
<path d="M82.0312 26.4421H87.9365L88.135 12.4128L92.4027 19.8221H95.6779L99.9456 12.4128L100.144 26.4421H106.049L105.677 2.5083H99.896L93.9907 12.1837L88.1102 2.5083H82.4034L82.0312 26.4421Z" fill="#28926E"/>
<path d="M109.499 18.0653H120.788V13.1257H109.499V18.0653Z" fill="#28926E"/>
<path d="M130.738 16.5881H132.177C133.864 16.5881 135.253 18.3704 136.047 20.0508L139.198 26.4162H146.096L141.704 17.4538C140.638 15.4169 139.471 14.1438 137.437 13.4818C139.074 12.7689 140.141 11.7249 141.233 9.43341L144.781 2.50788H138.107L135.278 8.18579C134.459 10.019 133.492 10.8083 131.755 10.8083H130.738V2.48242H124.683V26.4162H130.738V16.5881Z" fill="#28926E"/>
<path d="M152.223 8.9248C152.223 18.6002 151.23 21.2227 147.806 21.2227V26.4168C147.806 26.4168 148.501 26.4168 148.873 26.4168C153.836 26.4168 157.26 22.7249 157.26 14.0171H159.964V26.4423H165.746V8.9248H152.223Z" fill="#28926E"/>
<path d="M186.216 26.4423V8.9248H181.229L175.1 17.8618V8.9248H169.592V26.4423H174.257L180.733 17.5053V26.4423H186.216Z" fill="#28926E"/>
<path d="M200.906 8.9248V15.0865H195.869V8.9248H190.088V26.4423H195.869V20.0006H200.906V26.4168H206.687V8.9248H200.906Z" fill="#28926E"/>
<path d="M227.157 26.4423V8.9248H222.169L216.041 17.8618V8.9248H210.532V26.4423H215.172L221.648 17.4544V26.4423H227.157Z" fill="#28926E"/>
<path d="M236.561 19.8219C237.802 19.8219 238.546 21.0441 239.042 22.0116L241.126 26.4419H247.28L244.55 20.6112C243.484 18.5998 242.541 17.6068 240.928 17.0466C242.268 16.5883 243.186 15.8754 244.104 14.0421L246.56 8.89893H240.68L238.769 13.0237C238.199 14.2713 237.702 14.7041 236.511 14.7041H235.519V8.92439H229.837V26.4419H235.519V19.8219H236.561Z" fill="#28926E"/>
<path d="M263.979 16.105C263.979 11.3182 260.927 8.823 256.486 8.823C252.664 8.823 249.737 10.0451 248.521 11.5219L251.176 14.5009C252.143 13.788 253.607 13.2533 255.642 13.2533C256.808 13.2533 258.322 13.6607 258.322 15.4175V15.7485C257.528 15.6467 257.081 15.5958 256.039 15.5958C251.895 15.5958 248.347 17.7091 248.347 21.8847C248.347 25.984 251.25 27.0534 253.384 27.0534C255.567 27.0534 256.883 26.5187 258.346 24.9147V26.4933H263.979V16.105ZM258.346 20.1024C258.173 22.4194 256.709 23.0305 255.493 23.0305C254.228 23.0305 253.583 22.2157 253.583 20.9427C253.583 19.746 254.848 18.8294 256.758 18.8294C257.503 18.8294 258.024 18.8548 258.322 18.9821V20.1024H258.346Z" fill="#28926E"/>
<path d="M2.02909e-05 15.0328C2.02909e-05 8.21037 2.02656e-05 4.78452 2.05446 2.64703C4.13744 0.538818 7.4759 0.538818 14.1243 0.538818H30.7025C37.3509 0.538818 40.6894 0.538818 42.7723 2.64703C44.8268 4.78452 44.8268 8.18108 44.8268 15.0328V32.0449C44.8268 38.8673 44.8268 42.2931 42.7723 44.4306C40.6894 46.5388 37.3794 46.5388 30.7025 46.5388H14.1243C7.4759 46.5388 4.13744 46.5388 2.05446 44.4306C-0.0285137 42.3224 2.02909e-05 38.8966 2.02909e-05 32.0449V15.0328Z" fill="#28926E"/>
<path fill-rule="evenodd" clip-rule="evenodd" d="M22.7422 37.2571C13.6684 37.2571 5.70747 31.1374 5.87867 24.6078C5.67894 19.8643 8.27552 14.8281 14.125 12.1635C16.2935 11.168 20.0315 10.3188 23.6553 10.2895C24.4542 10.2603 24.9679 10.1724 25.6812 10.026C26.1377 9.93817 26.6514 9.82105 27.3932 9.73321C28.5917 9.55752 30.2181 9.38184 31.6448 9.96745C33.2998 10.8166 34.9262 12.1049 34.9262 12.7198C34.9262 13.3347 33.8419 14.4474 33.1286 14.5352C31.9016 14.6816 30.3608 14.4474 28.4205 14.1253C26.9367 13.8911 25.2247 13.5983 23.2844 13.4519C15.0951 13.3347 9.10301 18.9859 9.27421 24.4907C9.44541 31.4595 17.977 34.5047 23.2558 34.5047C37.9222 34.5925 37.4657 21.182 34.0131 20.5378C32.9003 20.3328 31.9872 22.3239 31.017 24.52C29.8757 27.0674 28.6202 29.9076 26.7084 29.8783C24.9393 29.8491 23.5412 26.8331 22.3713 24.2857C21.5438 22.5289 20.859 21.0063 20.2312 20.9184C19.0899 20.8013 18.2339 23.5244 17.4634 25.9254C16.9498 27.5359 16.4933 28.9999 16.0367 29.322C14.981 30.4054 12.2132 28.0629 12.5841 27.1552C12.9551 26.2768 13.326 26.5989 13.7255 26.9795C14.0394 27.2724 14.4103 27.6237 14.8098 27.2431C14.9525 27.0967 15.1807 26.4525 15.4661 25.5448C16.3221 22.9974 17.8058 18.4296 20.3739 18.2246C22.2001 18.0782 23.6553 21.4748 24.8252 24.1686C25.5671 25.9254 26.1948 27.3895 26.737 27.3895C27.3362 27.3895 27.9354 26.0426 28.6487 24.3736C29.8757 21.6212 31.445 18.0489 34.0131 18.4881C40.6044 19.6594 41.1466 37.2864 22.7422 37.2571ZM31.2168 11.3729C31.2168 11.6657 30.7602 11.695 29.8186 11.6657C29.1053 11.6365 28.6487 11.4315 28.7629 11.0508C28.877 10.6702 29.5047 10.6409 30.1896 10.7873C30.5034 10.8459 31.2168 11.0508 31.2168 11.3729Z" fill="white"/>
<path d="M64.6396 34.8877C64.0882 34.8877 63.5915 34.9834 63.1494 35.1748C62.7119 35.3617 62.3382 35.6351 62.0283 35.9951C61.723 36.3506 61.4883 36.7812 61.3242 37.2871C61.1602 37.793 61.0781 38.3626 61.0781 38.9961C61.0781 39.8346 61.208 40.5638 61.4678 41.1836C61.7321 41.7988 62.124 42.2751 62.6436 42.6123C63.1676 42.9495 63.8216 43.1182 64.6055 43.1182C65.0521 43.1182 65.4714 43.0817 65.8633 43.0088C66.2598 42.9313 66.6449 42.8356 67.0186 42.7217V43.7334C66.654 43.8701 66.2712 43.9704 65.8701 44.0342C65.4691 44.1025 64.9928 44.1367 64.4414 44.1367C63.4251 44.1367 62.5752 43.9271 61.8916 43.5078C61.2126 43.084 60.7021 42.487 60.3604 41.7168C60.0231 40.9466 59.8545 40.0374 59.8545 38.9893C59.8545 38.2327 59.9593 37.5423 60.1689 36.918C60.3831 36.2891 60.693 35.7467 61.0986 35.291C61.5088 34.8353 62.0101 34.4844 62.6025 34.2383C63.1995 33.9876 63.8831 33.8623 64.6533 33.8623C65.1592 33.8623 65.6468 33.9124 66.1162 34.0127C66.5856 34.113 67.0094 34.2565 67.3877 34.4434L66.9229 35.4277C66.6038 35.2819 66.2529 35.1566 65.8701 35.0518C65.4919 34.9424 65.0817 34.8877 64.6396 34.8877ZM73.5228 36.5078H74.7738L71.5404 40.124L75.0336 44H73.7005L70.2963 40.1992V44H69.1546V36.5078H70.2963V40.1445L73.5228 36.5078ZM82.987 40.2402C82.987 40.8555 82.9073 41.4046 82.7478 41.8877C82.5883 42.3708 82.3581 42.7786 82.0573 43.1113C81.7566 43.444 81.392 43.6992 80.9636 43.877C80.5398 44.0501 80.059 44.1367 79.5212 44.1367C79.0199 44.1367 78.5596 44.0501 78.1404 43.877C77.7256 43.6992 77.3656 43.444 77.0603 43.1113C76.7595 42.7786 76.5248 42.3708 76.3562 41.8877C76.1921 41.4046 76.1101 40.8555 76.1101 40.2402C76.1101 39.4199 76.2491 38.7227 76.5271 38.1484C76.8051 37.5697 77.2016 37.1299 77.7165 36.8291C78.2361 36.5238 78.8536 36.3711 79.5691 36.3711C80.2527 36.3711 80.8497 36.5238 81.3601 36.8291C81.8751 37.1344 82.2738 37.5765 82.5564 38.1553C82.8435 38.7295 82.987 39.4245 82.987 40.2402ZM77.2859 40.2402C77.2859 40.8418 77.3656 41.3636 77.5251 41.8057C77.6846 42.2477 77.9307 42.5895 78.2634 42.8311C78.5961 43.0726 79.0245 43.1934 79.5486 43.1934C80.0681 43.1934 80.4942 43.0726 80.8269 42.8311C81.1641 42.5895 81.4125 42.2477 81.572 41.8057C81.7315 41.3636 81.8113 40.8418 81.8113 40.2402C81.8113 39.6432 81.7315 39.1283 81.572 38.6953C81.4125 38.2578 81.1664 37.9206 80.8337 37.6836C80.501 37.4466 80.0704 37.3281 79.5417 37.3281C78.7624 37.3281 78.1905 37.5856 77.8259 38.1006C77.4659 38.6156 77.2859 39.3288 77.2859 40.2402ZM88.6095 36.3711C89.5437 36.3711 90.2888 36.6924 90.8448 37.335C91.4008 37.9775 91.6788 38.9437 91.6788 40.2334C91.6788 41.0856 91.5512 41.8011 91.296 42.3799C91.0408 42.9587 90.6807 43.3962 90.2159 43.6924C89.7556 43.9886 89.211 44.1367 88.5821 44.1367C88.1856 44.1367 87.837 44.0843 87.5362 43.9795C87.2354 43.8747 86.9779 43.7334 86.7638 43.5557C86.5496 43.3779 86.3718 43.1842 86.2305 42.9746H86.1485C86.1622 43.1523 86.1781 43.3665 86.1964 43.6172C86.2192 43.8678 86.2305 44.0866 86.2305 44.2734V47.3496H85.0889V36.5078H86.0255L86.1759 37.6152H86.2305C86.3764 37.3874 86.5541 37.18 86.7638 36.9932C86.9734 36.8018 87.2286 36.6514 87.5294 36.542C87.8347 36.4281 88.1947 36.3711 88.6095 36.3711ZM88.4112 37.3281C87.8917 37.3281 87.4724 37.4284 87.1534 37.6289C86.8389 37.8294 86.6088 38.1302 86.463 38.5312C86.3171 38.9277 86.2397 39.4268 86.2305 40.0283V40.2471C86.2305 40.8805 86.2989 41.416 86.4356 41.8535C86.5769 42.291 86.807 42.6237 87.1261 42.8516C87.4496 43.0794 87.8826 43.1934 88.4249 43.1934C88.8897 43.1934 89.2771 43.068 89.587 42.8174C89.8969 42.5667 90.127 42.2181 90.2774 41.7715C90.4324 41.3203 90.5098 40.8031 90.5098 40.2197C90.5098 39.3356 90.3367 38.6338 89.9903 38.1143C89.6485 37.5902 89.1221 37.3281 88.4112 37.3281ZM96.6039 36.3848C97.4972 36.3848 98.1603 36.5853 98.5932 36.9863C99.0261 37.3874 99.2426 38.0277 99.2426 38.9072V44H98.4155L98.1967 42.8926H98.142C97.9324 43.166 97.7136 43.3962 97.4858 43.583C97.2579 43.7653 96.9936 43.9043 96.6928 44C96.3966 44.0911 96.032 44.1367 95.5991 44.1367C95.1433 44.1367 94.7377 44.057 94.3823 43.8975C94.0314 43.738 93.7534 43.4964 93.5483 43.1729C93.3478 42.8493 93.2475 42.4391 93.2475 41.9424C93.2475 41.195 93.5437 40.6208 94.1362 40.2197C94.7286 39.8187 95.631 39.5999 96.8432 39.5635L98.1352 39.5088V39.0508C98.1352 38.4036 97.9962 37.9502 97.7182 37.6904C97.4402 37.4307 97.0483 37.3008 96.5424 37.3008C96.1505 37.3008 95.7768 37.3577 95.4213 37.4717C95.0659 37.5856 94.7286 37.7201 94.4096 37.875L94.061 37.0137C94.3982 36.8405 94.7856 36.6924 95.2231 36.5693C95.6606 36.4463 96.1209 36.3848 96.6039 36.3848ZM98.1215 40.3086L96.9799 40.3564C96.0457 40.3929 95.3871 40.5456 95.0043 40.8145C94.6215 41.0833 94.4301 41.4639 94.4301 41.9561C94.4301 42.3844 94.56 42.7012 94.8198 42.9062C95.0795 43.1113 95.4236 43.2139 95.852 43.2139C96.5174 43.2139 97.062 43.0293 97.4858 42.6602C97.9096 42.291 98.1215 41.7373 98.1215 40.999V40.3086ZM102.083 44H100.757L102.917 40.8418C102.602 40.7734 102.311 40.6572 102.042 40.4932C101.773 40.3245 101.554 40.0944 101.386 39.8027C101.221 39.5111 101.139 39.1488 101.139 38.7158C101.139 37.9958 101.379 37.4489 101.857 37.0752C102.34 36.6969 102.976 36.5078 103.764 36.5078H107.08V44H105.945V40.9922H104.045L102.083 44ZM102.24 38.7227C102.24 39.1693 102.4 39.502 102.719 39.7207C103.038 39.9349 103.493 40.042 104.086 40.042H105.945V37.458H103.888C103.304 37.458 102.883 37.5765 102.623 37.8135C102.368 38.0459 102.24 38.349 102.24 38.7227ZM121.298 36.5078V44H120.273V39.1191C120.273 38.9186 120.278 38.7158 120.287 38.5107C120.3 38.3011 120.316 38.0915 120.334 37.8818H120.293L117.805 44H116.841L114.415 37.8818H114.374C114.387 38.0915 114.396 38.3011 114.401 38.5107C114.41 38.7158 114.415 38.9323 114.415 39.1602V44H113.382V36.5078H114.907L117.327 42.6328L119.781 36.5078H121.298ZM126.682 36.3711C127.32 36.3711 127.866 36.5124 128.322 36.7949C128.778 37.0775 129.127 37.474 129.368 37.9844C129.61 38.4902 129.73 39.0827 129.73 39.7617V40.4658H124.556C124.569 41.3454 124.788 42.0153 125.212 42.4756C125.636 42.9359 126.233 43.166 127.003 43.166C127.477 43.166 127.896 43.1227 128.261 43.0361C128.625 42.9495 129.003 42.8219 129.395 42.6533V43.6514C129.017 43.82 128.641 43.943 128.267 44.0205C127.898 44.098 127.461 44.1367 126.955 44.1367C126.235 44.1367 125.606 43.9909 125.068 43.6992C124.535 43.403 124.12 42.9701 123.824 42.4004C123.528 41.8307 123.38 41.1335 123.38 40.3086C123.38 39.502 123.514 38.8047 123.783 38.2168C124.057 37.6243 124.439 37.1686 124.932 36.8496C125.428 36.5306 126.012 36.3711 126.682 36.3711ZM126.668 37.3008C126.062 37.3008 125.579 37.499 125.219 37.8955C124.859 38.292 124.644 38.8457 124.576 39.5566H128.541C128.536 39.11 128.466 38.7181 128.329 38.3809C128.197 38.0391 127.994 37.7747 127.721 37.5879C127.447 37.3965 127.096 37.3008 126.668 37.3008ZM137.287 36.5078V43.0361H138.361V46.5908H137.26V44H131.955V46.5908H130.868V43.0361H131.456C131.885 42.4437 132.24 41.7943 132.523 41.0879C132.805 40.3815 133.019 39.641 133.165 38.8662C133.311 38.0869 133.389 37.3008 133.398 36.5078H137.287ZM136.187 37.4102H134.409C134.368 38.0755 134.27 38.7523 134.115 39.4404C133.965 40.1286 133.765 40.7848 133.514 41.4092C133.263 42.029 132.972 42.5713 132.639 43.0361H136.187V37.4102ZM141.071 36.5078V41.2178C141.071 41.3089 141.069 41.4274 141.064 41.5732C141.06 41.7145 141.053 41.8672 141.044 42.0312C141.034 42.1908 141.025 42.3457 141.016 42.4961C141.012 42.6419 141.005 42.7627 140.996 42.8584L145.084 36.5078H146.478V44H145.419V39.4062C145.419 39.2604 145.421 39.0736 145.425 38.8457C145.43 38.6178 145.437 38.3945 145.446 38.1758C145.455 37.9525 145.462 37.7793 145.466 37.6562L141.392 44H139.991V36.5078H141.071ZM156.325 46.5908H155.218V44H149.031V36.5078H150.173V43.0361H154.144V36.5078H155.279V43.0498H156.325V46.5908ZM159.015 36.5078V41.2178C159.015 41.3089 159.013 41.4274 159.008 41.5732C159.004 41.7145 158.997 41.8672 158.988 42.0312C158.979 42.1908 158.969 42.3457 158.96 42.4961C158.956 42.6419 158.949 42.7627 158.94 42.8584L163.028 36.5078H164.422V44H163.363V39.4062C163.363 39.2604 163.365 39.0736 163.369 38.8457C163.374 38.6178 163.381 38.3945 163.39 38.1758C163.399 37.9525 163.406 37.7793 163.41 37.6562L159.336 44H157.935V36.5078H159.015ZM168.117 36.5078V39.6523H172.294V36.5078H173.428V44H172.294V40.6162H168.117V44H166.975V36.5078H168.117ZM178.976 44.1367C178.301 44.1367 177.706 43.9977 177.191 43.7197C176.676 43.4417 176.275 43.0179 175.988 42.4482C175.701 41.8786 175.558 41.1608 175.558 40.2949C175.558 39.388 175.708 38.6475 176.009 38.0732C176.314 37.4945 176.733 37.0661 177.267 36.7881C177.8 36.5101 178.406 36.3711 179.085 36.3711C179.459 36.3711 179.819 36.4098 180.165 36.4873C180.516 36.5602 180.803 36.6536 181.026 36.7676L180.685 37.7178C180.457 37.6266 180.192 37.5446 179.892 37.4717C179.595 37.3988 179.317 37.3623 179.058 37.3623C178.538 37.3623 178.105 37.474 177.759 37.6973C177.417 37.9206 177.16 38.2487 176.986 38.6816C176.818 39.1146 176.733 39.6478 176.733 40.2812C176.733 40.8874 176.815 41.4046 176.98 41.833C177.148 42.2614 177.397 42.5895 177.725 42.8174C178.057 43.0407 178.472 43.1523 178.969 43.1523C179.365 43.1523 179.723 43.1113 180.042 43.0293C180.361 42.9427 180.65 42.8424 180.91 42.7285V43.7402C180.66 43.8678 180.379 43.9658 180.069 44.0342C179.764 44.1025 179.399 44.1367 178.976 44.1367ZM187.196 36.5078H188.447L185.213 40.124L188.706 44H187.373L183.969 40.1992V44H182.828V36.5078H183.969V40.1445L187.196 36.5078ZM193.003 36.3848C193.896 36.3848 194.559 36.5853 194.992 36.9863C195.425 37.3874 195.641 38.0277 195.641 38.9072V44H194.814L194.595 42.8926H194.541C194.331 43.166 194.112 43.3962 193.885 43.583C193.657 43.7653 193.392 43.9043 193.092 44C192.795 44.0911 192.431 44.1367 191.998 44.1367C191.542 44.1367 191.136 44.057 190.781 43.8975C190.43 43.738 190.152 43.4964 189.947 43.1729C189.747 42.8493 189.646 42.4391 189.646 41.9424C189.646 41.195 189.942 40.6208 190.535 40.2197C191.127 39.8187 192.03 39.5999 193.242 39.5635L194.534 39.5088V39.0508C194.534 38.4036 194.395 37.9502 194.117 37.6904C193.839 37.4307 193.447 37.3008 192.941 37.3008C192.549 37.3008 192.176 37.3577 191.82 37.4717C191.465 37.5856 191.127 37.7201 190.808 37.875L190.46 37.0137C190.797 36.8405 191.184 36.6924 191.622 36.5693C192.059 36.4463 192.52 36.3848 193.003 36.3848ZM194.52 40.3086L193.379 40.3564C192.444 40.3929 191.786 40.5456 191.403 40.8145C191.02 41.0833 190.829 41.4639 190.829 41.9561C190.829 42.3844 190.959 42.7012 191.219 42.9062C191.478 43.1113 191.822 43.2139 192.251 43.2139C192.916 43.2139 193.461 43.0293 193.885 42.6602C194.308 42.291 194.52 41.7373 194.52 40.999V40.3086ZM198.482 44H197.155L199.316 40.8418C199.001 40.7734 198.709 40.6572 198.441 40.4932C198.172 40.3245 197.953 40.0944 197.784 39.8027C197.62 39.5111 197.538 39.1488 197.538 38.7158C197.538 37.9958 197.777 37.4489 198.256 37.0752C198.739 36.6969 199.375 36.5078 200.163 36.5078H203.479V44H202.344V40.9922H200.443L198.482 44ZM198.639 38.7227C198.639 39.1693 198.798 39.502 199.117 39.7207C199.436 39.9349 199.892 40.042 200.484 40.042H202.344V37.458H200.286C199.703 37.458 199.281 37.5765 199.022 37.8135C198.766 38.0459 198.639 38.349 198.639 38.7227ZM216.063 36.5078V44H214.922V37.4854H210.93V44H209.788V36.5078H216.063ZM225.07 40.2402C225.07 40.8555 224.99 41.4046 224.83 41.8877C224.671 42.3708 224.441 42.7786 224.14 43.1113C223.839 43.444 223.474 43.6992 223.046 43.877C222.622 44.0501 222.141 44.1367 221.604 44.1367C221.102 44.1367 220.642 44.0501 220.223 43.877C219.808 43.6992 219.448 43.444 219.143 43.1113C218.842 42.7786 218.607 42.3708 218.439 41.8877C218.275 41.4046 218.193 40.8555 218.193 40.2402C218.193 39.4199 218.332 38.7227 218.61 38.1484C218.888 37.5697 219.284 37.1299 219.799 36.8291C220.319 36.5238 220.936 36.3711 221.652 36.3711C222.335 36.3711 222.932 36.5238 223.443 36.8291C223.958 37.1344 224.356 37.5765 224.639 38.1553C224.926 38.7295 225.07 39.4245 225.07 40.2402ZM219.368 40.2402C219.368 40.8418 219.448 41.3636 219.608 41.8057C219.767 42.2477 220.013 42.5895 220.346 42.8311C220.679 43.0726 221.107 43.1934 221.631 43.1934C222.151 43.1934 222.577 43.0726 222.909 42.8311C223.247 42.5895 223.495 42.2477 223.654 41.8057C223.814 41.3636 223.894 40.8418 223.894 40.2402C223.894 39.6432 223.814 39.1283 223.654 38.6953C223.495 38.2578 223.249 37.9206 222.916 37.6836C222.584 37.4466 222.153 37.3281 221.624 37.3281C220.845 37.3281 220.273 37.5856 219.908 38.1006C219.548 38.6156 219.368 39.3288 219.368 40.2402ZM235.081 36.5078V44H234.055V39.1191C234.055 38.9186 234.06 38.7158 234.069 38.5107C234.083 38.3011 234.099 38.0915 234.117 37.8818H234.076L231.587 44H230.624L228.197 37.8818H228.156C228.169 38.0915 228.179 38.3011 228.183 38.5107C228.192 38.7158 228.197 38.9323 228.197 39.1602V44H227.165V36.5078H228.689L231.109 42.6328L233.563 36.5078H235.081ZM244.039 40.2402C244.039 40.8555 243.959 41.4046 243.8 41.8877C243.64 42.3708 243.41 42.7786 243.109 43.1113C242.809 43.444 242.444 43.6992 242.016 43.877C241.592 44.0501 241.111 44.1367 240.573 44.1367C240.072 44.1367 239.612 44.0501 239.192 43.877C238.778 43.6992 238.418 43.444 238.112 43.1113C237.811 42.7786 237.577 42.3708 237.408 41.8877C237.244 41.4046 237.162 40.8555 237.162 40.2402C237.162 39.4199 237.301 38.7227 237.579 38.1484C237.857 37.5697 238.254 37.1299 238.768 36.8291C239.288 36.5238 239.906 36.3711 240.621 36.3711C241.305 36.3711 241.902 36.5238 242.412 36.8291C242.927 37.1344 243.326 37.5765 243.608 38.1553C243.895 38.7295 244.039 39.4245 244.039 40.2402ZM238.338 40.2402C238.338 40.8418 238.418 41.3636 238.577 41.8057C238.737 42.2477 238.983 42.5895 239.315 42.8311C239.648 43.0726 240.076 43.1934 240.601 43.1934C241.12 43.1934 241.546 43.0726 241.879 42.8311C242.216 42.5895 242.464 42.2477 242.624 41.8057C242.783 41.3636 242.863 40.8418 242.863 40.2402C242.863 39.6432 242.783 39.1283 242.624 38.6953C242.464 38.2578 242.218 37.9206 241.886 37.6836C241.553 37.4466 241.122 37.3281 240.594 37.3281C239.814 37.3281 239.242 37.5856 238.878 38.1006C238.518 38.6156 238.338 39.3288 238.338 40.2402ZM256.183 36.5078V43.0498H257.256V46.5771H256.115V44H246.141V36.5078H247.276V43.0361H250.591V36.5078H251.733V43.0361H255.055V36.5078H256.183ZM259.987 39.5977H262.284C262.922 39.5977 263.453 39.6774 263.877 39.8369C264.3 39.9964 264.617 40.2334 264.827 40.5479C265.041 40.8623 265.148 41.252 265.148 41.7168C265.148 42.1816 265.043 42.585 264.834 42.9268C264.629 43.2686 264.31 43.5329 263.877 43.7197C263.448 43.9066 262.895 44 262.215 44H258.845V36.5078H259.987V39.5977ZM264.006 41.7715C264.006 41.3112 263.842 40.9922 263.514 40.8145C263.191 40.6322 262.737 40.541 262.154 40.541H259.987V43.0771H262.161C262.708 43.0771 263.152 42.9769 263.494 42.7764C263.836 42.5713 264.006 42.2363 264.006 41.7715Z" fill="#28926E"/>
</svg>
