<svg width="198" height="35" viewBox="0 0 198 35" fill="none" xmlns="http://www.w3.org/2000/svg">
<path d="M57.0792 13.0126C55.8695 14.5977 54.7901 15.3043 52.8174 15.3043C50.063 15.3043 47.7553 13.1845 47.7553 10.3007C47.7553 7.49337 49.9699 5.35443 52.8546 5.35443C54.5668 5.35443 55.9067 6.23292 56.8559 7.60795L59.8522 4.43774C58.1028 1.85956 55.4973 0.942871 52.5196 0.942871C47.2342 0.942871 43.0654 4.97248 43.0654 10.4535C43.0654 15.9536 47.2714 19.8495 52.5196 19.8495C55.6834 19.8495 58.2144 18.5891 60.1313 16.0491L57.0792 13.0126Z" fill="#28926E"/>
<path d="M61.5283 19.4291H65.9576L66.1065 8.90628L69.3075 14.4637H71.7641L74.9651 8.90628L75.114 19.4291H79.5433L79.2642 1.47729H74.9279L70.4986 8.7344L66.0879 1.47729H61.8075L61.5283 19.4291Z" fill="#28926E"/>
<path d="M82.1299 13.1459H86.3545H90.5977V9.44092H86.3545H82.1299V13.1459Z" fill="#28926E"/>
<path d="M98.0605 12.0381H99.1399C100.405 12.0381 101.448 13.3749 102.043 14.6354L104.407 19.4098H109.58L106.286 12.6874C105.486 11.1596 104.611 10.2047 103.085 9.70819C104.314 9.17346 105.114 8.39046 105.933 6.67167L108.594 1.47711H103.588L101.466 5.73588C100.852 7.11091 100.126 7.70294 98.8235 7.70294H98.0605V1.45801H93.5195V19.4098H98.0605V12.0381Z" fill="#28926E"/>
<path d="M114.176 6.29028C114.176 13.5474 113.432 15.5144 110.863 15.5144V19.4104C110.863 19.4104 111.384 19.4104 111.664 19.4104C115.386 19.4104 117.954 16.6412 117.954 10.1098H119.982V19.4295H124.319V6.29028H114.176Z" fill="#28926E"/>
<path d="M139.673 19.4295V6.29028H135.932L131.336 12.9936V6.29028H127.204V19.4295H130.703L135.56 12.7262V19.4295H139.673Z" fill="#28926E"/>
<path d="M150.691 6.29028V10.9119H146.913V6.29028H142.577V19.4295H146.913V14.5978H150.691V19.4104H155.028V6.29028H150.691Z" fill="#28926E"/>
<path d="M170.381 19.4295V6.29028H166.64L162.044 12.9936V6.29028H157.912V19.4295H161.392L166.25 12.688V19.4295H170.381Z" fill="#28926E"/>
<path d="M176.672 14.4636H177.435C178.366 14.4636 178.924 15.3803 179.296 16.106L180.859 19.429H185.475L183.428 15.0557C182.627 13.547 181.92 12.8021 180.711 12.382C181.715 12.0382 182.404 11.5035 183.093 10.1285L184.935 6.27075H180.524L179.091 9.36457C178.663 10.3004 178.291 10.625 177.398 10.625H176.653V6.28985H172.392V19.429H176.653V14.4636H176.672Z" fill="#28926E"/>
<path d="M198 19.4292V11.6756C198 8.08519 195.711 6.21362 192.38 6.21362C189.514 6.21362 187.318 7.13031 186.406 8.23797L188.397 10.4724C189.123 9.93767 190.221 9.53661 191.747 9.53661C192.622 9.53661 193.757 9.84218 193.757 11.1599V11.4082C193.161 11.3318 192.826 11.2936 192.045 11.2936C188.937 11.2936 186.275 12.8787 186.275 16.0107C186.275 19.0854 188.453 19.8875 190.053 19.8875C191.691 19.8875 192.677 19.4865 193.775 18.2833V19.4674H198V19.4292ZM193.775 14.6739C193.645 16.4118 192.547 16.8701 191.635 16.8701C190.686 16.8701 190.202 16.259 190.202 15.3041C190.202 14.4065 191.151 13.719 192.584 13.719C193.143 13.719 193.534 13.7381 193.757 13.8336V14.6739H193.775Z" fill="#28926E"/>
<path d="M1.52195e-05 10.8713C1.52195e-05 5.75412 1.52142e-05 3.18453 1.54097 1.58129C3.10333 0 5.60738 0 10.5941 0H23.0287C28.0154 0 30.5195 0 32.0818 1.58129C33.6228 3.18453 33.6228 5.73216 33.6228 10.8713V23.6314C33.6228 28.7487 33.6228 31.3182 32.0818 32.9215C30.5195 34.5028 28.0368 34.5028 23.0287 34.5028H10.5941C5.60738 34.5028 3.10333 34.5028 1.54097 32.9215C-0.021387 31.3402 1.52195e-05 28.7706 1.52195e-05 23.6314V10.8713Z" fill="#28926E"/>
<path fill-rule="evenodd" clip-rule="evenodd" d="M17.058 27.5407C10.2522 27.5407 4.28096 22.9506 4.40938 18.053C4.25956 14.4951 6.20716 10.7176 10.5946 8.71901C12.2212 7.97229 15.0248 7.33538 17.7429 7.31342C18.3422 7.29146 18.7274 7.22557 19.2625 7.11576C19.6049 7.04987 19.9901 6.96202 20.5466 6.89614C21.4455 6.76436 22.6654 6.63259 23.7355 7.07183C24.9768 7.70874 26.1968 8.67508 26.1968 9.13629C26.1968 9.5975 25.3835 10.4321 24.8484 10.498C23.9281 10.6078 22.7724 10.4321 21.3171 10.1905C20.2042 10.0148 18.92 9.79516 17.4647 9.68535C11.3223 9.5975 6.82782 13.8362 6.95623 17.9651C7.08465 23.1922 13.4839 25.4762 17.4433 25.4762C28.444 25.5421 28.1016 15.4834 25.5119 15.0002C24.6772 14.8465 23.9923 16.3399 23.2647 17.9871C22.4086 19.8978 21.4669 22.0282 20.0329 22.0062C18.706 21.9842 17.6573 19.7221 16.7798 17.8114C16.1592 16.4937 15.6455 15.3516 15.1747 15.2857C14.3186 15.1979 13.6765 17.2404 13.0986 19.0413C12.7134 20.2492 12.371 21.3473 12.0285 21.5889C11.2367 22.4015 9.16065 20.6445 9.43888 19.9637C9.71711 19.3048 9.99534 19.5464 10.295 19.8319C10.5304 20.0516 10.8086 20.3151 11.1082 20.0296C11.2153 19.9198 11.3865 19.4366 11.6005 18.7558C12.2426 16.8451 13.3555 13.4189 15.2817 13.2652C16.6514 13.1554 17.7429 15.703 18.6204 17.7235C19.1769 19.0413 19.6477 20.1394 20.0543 20.1394C20.5038 20.1394 20.9532 19.1291 21.4883 17.8773C22.4086 15.8128 23.5857 13.1334 25.5119 13.4629C30.4558 14.3414 30.8624 27.5627 17.058 27.5407ZM23.4145 8.12602C23.4145 8.34565 23.072 8.36761 22.3658 8.34565C21.8307 8.32368 21.4883 8.16995 21.5739 7.88444C21.6595 7.59893 22.1304 7.57697 22.644 7.68678C22.8794 7.7307 23.4145 7.88444 23.4145 8.12602Z" fill="white"/>
</svg>
